<svg width="241" height="52" viewBox="0 0 241 52" fill="none" xmlns="http://www.w3.org/2000/svg">
<path d="M48.7927 20.2684C47.4575 18.7707 45.806 18.0168 43.8434 18.0168C42.6337 18.0168 41.5194 18.2527 40.4954 18.7297C39.4714 19.2067 38.5879 19.8529 37.84 20.6787C37.0971 21.5096 36.5099 22.4738 36.0782 23.5919C35.6465 24.7049 35.4307 25.9102 35.4307 27.213C35.4307 28.4901 35.6314 29.6544 36.028 30.7058C36.4295 31.7521 36.9867 32.6497 37.7095 33.3985C38.4323 34.1473 39.2907 34.732 40.2845 35.1526C41.2784 35.5731 42.3677 35.7834 43.5523 35.7834C44.0894 35.7834 44.5863 35.7424 45.038 35.6655C45.4898 35.5885 45.9215 35.4603 46.3331 35.2859C46.7447 35.1064 47.1462 34.8807 47.5478 34.6089C47.9443 34.3319 48.361 33.9832 48.7927 33.5677V38.0145H48.7876V38.4454H43.3063L39.1853 43.1845V44H54.6504V42.0766V18.4835H48.7927V20.2684ZM48.7776 28.4183C48.5718 28.8901 48.3007 29.3056 47.9694 29.6595C47.6331 30.0134 47.2366 30.2852 46.7748 30.4852C46.313 30.6853 45.8211 30.7827 45.3041 30.7827C44.762 30.7827 44.26 30.6853 43.7982 30.4852C43.3364 30.2852 42.9349 30.0134 42.5986 29.6595C42.2622 29.3056 42.0012 28.8901 41.8055 28.4183C41.6097 27.9464 41.5143 27.4284 41.5143 26.8796C41.5143 26.3513 41.6147 25.8538 41.8205 25.3922C42.0263 24.9306 42.2974 24.5305 42.6487 24.1869C42.9951 23.8433 43.3916 23.5714 43.8434 23.3611C44.2952 23.1509 44.782 23.0483 45.2991 23.0483C45.796 23.0483 46.2728 23.1457 46.7397 23.3458C47.2015 23.5407 47.608 23.8176 47.9544 24.1715C48.3007 24.5254 48.5718 24.9306 48.7826 25.3922C48.9884 25.8538 49.0888 26.3616 49.0888 26.9155C49.0838 27.4438 48.9834 27.9464 48.7776 28.4183Z" fill="#10239E"/>
<path d="M32.449 20.5454C32.1378 20.171 31.7864 19.8479 31.41 19.5607C31.0737 19.3093 30.7173 19.0888 30.3308 18.9093C30.145 18.8221 29.9493 18.7503 29.7435 18.6836C29.4473 18.5862 29.1261 18.5195 28.7948 18.4631H24.6185L21.8578 21.6789V21.3045V18.5297H16V35.4963H21.8578V28.2183V24.0485H22.671H24.3023H27.2889H27.3592L27.816 24.0382V35.4911H33.6738V24.8794C33.6738 23.9767 33.5884 23.1714 33.4178 22.4636C33.2471 21.761 32.9259 21.125 32.449 20.5454Z" fill="#10239E"/>
<path d="M71.8766 18.4835H67.5347C67.5347 18.4835 65.9836 18.4835 65.4867 18.4835L62.9468 21.407V18.4835H57.084V35.4501H62.9569L62.9619 24.0946H64.8894H67.2235L71.8766 18.7195V18.4835V18.4835Z" fill="#10239E"/>
<path d="M103.531 26.3206L111.542 18.7708V18.4835H103.822L97.6781 24.6024V8H91.8203V35.4449H97.6781V28.5363L104.118 35.4449H112V35.1218L103.531 26.3206Z" fill="#10239E"/>
<path d="M87.2423 20.4171C86.3489 19.6119 85.2897 18.9862 84.07 18.5348C82.8502 18.0835 81.5301 17.8578 80.1046 17.8578C78.6589 17.8578 77.3237 18.0886 76.109 18.5502C74.8892 19.0118 73.8402 19.6478 72.9517 20.4479C72.0683 21.2531 71.3756 22.202 70.8786 23.2945C70.3817 24.3869 70.1357 25.5615 70.1357 26.818C70.1357 28.208 70.3817 29.4697 70.8786 30.6032C71.3756 31.7367 72.0582 32.7112 72.9366 33.5267C73.81 34.3422 74.8491 34.9731 76.0588 35.4141C77.2685 35.8552 78.5836 36.0758 80.0092 36.0758C81.4548 36.0758 82.795 35.8552 84.0399 35.4141C85.2797 34.9731 86.3438 34.3525 87.2273 33.5421C88.1107 32.7368 88.8084 31.7777 89.3154 30.6648C89.8224 29.5518 90.0784 28.326 90.0784 26.977C90.0784 25.6333 89.8274 24.4023 89.3355 23.2893C88.8335 22.1815 88.1358 21.2224 87.2423 20.4171ZM83.5831 28.449C83.3773 28.9209 83.1062 29.3364 82.775 29.6903C82.4386 30.0441 82.0421 30.316 81.5803 30.516C81.1135 30.716 80.6266 30.8135 80.1096 30.8135C79.5926 30.8135 79.1006 30.716 78.6338 30.516C78.172 30.316 77.7705 30.0441 77.4392 29.6903C77.1029 29.3364 76.8368 28.9209 76.631 28.449C76.4252 27.9772 76.3248 27.454 76.3248 26.8796C76.3248 26.3513 76.4252 25.8538 76.631 25.3922C76.8368 24.9306 77.1029 24.5254 77.4392 24.1715C77.7755 23.8176 78.172 23.5407 78.6338 23.3458C79.1006 23.1457 79.5875 23.0483 80.1096 23.0483C80.6266 23.0483 81.1185 23.1457 81.5803 23.3458C82.0421 23.5407 82.4437 23.8176 82.775 24.1715C83.1113 24.5254 83.3773 24.9409 83.5831 25.4127C83.7889 25.8846 83.8893 26.3872 83.8893 26.9155C83.8893 27.4643 83.7889 27.9772 83.5831 28.449Z" fill="#10239E"/>
<path fill-rule="evenodd" clip-rule="evenodd" d="M128 44L128 8L129 8L129 44L128 44Z" fill="#10239E"/>
<path d="M145 34.52V17.48H149.896C152.504 17.48 154.664 18.288 156.376 19.904C158.104 21.52 158.968 23.552 158.968 26C158.968 28.448 158.104 30.48 156.376 32.096C154.664 33.712 152.504 34.52 149.896 34.52H145ZM147.232 32.432H149.896C151.928 32.432 153.568 31.832 154.816 30.632C156.08 29.416 156.712 27.872 156.712 26C156.712 24.128 156.08 22.592 154.816 21.392C153.568 20.176 151.928 19.568 149.896 19.568H147.232V32.432Z" fill="#10239E"/>
<path d="M174.729 32.696C176.601 32.696 178.161 32.048 179.409 30.752C180.673 29.456 181.305 27.872 181.305 26C181.305 24.128 180.673 22.544 179.409 21.248C178.161 19.952 176.601 19.304 174.729 19.304C172.873 19.304 171.313 19.952 170.049 21.248C168.801 22.544 168.177 24.128 168.177 26C168.177 27.872 168.801 29.456 170.049 30.752C171.313 32.048 172.873 32.696 174.729 32.696ZM174.729 34.808C172.281 34.808 170.201 33.96 168.489 32.264C166.777 30.552 165.921 28.464 165.921 26C165.921 23.536 166.777 21.456 168.489 19.76C170.201 18.048 172.281 17.192 174.729 17.192C177.193 17.192 179.273 18.048 180.969 19.76C182.681 21.456 183.537 23.536 183.537 26C183.537 28.464 182.681 30.552 180.969 32.264C179.273 33.96 177.193 34.808 174.729 34.808Z" fill="#10239E"/>
<path d="M199.334 34.808C196.886 34.808 194.806 33.96 193.094 32.264C191.382 30.552 190.526 28.464 190.526 26C190.526 23.536 191.382 21.456 193.094 19.76C194.806 18.048 196.886 17.192 199.334 17.192C200.95 17.192 202.414 17.56 203.726 18.296C205.038 19.032 206.086 20.04 206.87 21.32L204.998 22.448C204.39 21.472 203.598 20.704 202.622 20.144C201.646 19.584 200.55 19.304 199.334 19.304C197.478 19.304 195.918 19.952 194.654 21.248C193.406 22.544 192.782 24.128 192.782 26C192.782 27.872 193.406 29.456 194.654 30.752C195.918 32.048 197.478 32.696 199.334 32.696C200.55 32.696 201.646 32.416 202.622 31.856C203.598 31.296 204.39 30.528 204.998 29.552L206.87 30.68C206.086 31.96 205.038 32.968 203.726 33.704C202.414 34.44 200.95 34.808 199.334 34.808Z" fill="#10239E"/>
<path d="M219.179 34.808C217.819 34.808 216.595 34.52 215.507 33.944C214.419 33.368 213.659 32.632 213.227 31.736L215.003 30.392C216.011 31.944 217.419 32.72 219.227 32.72C220.155 32.72 220.915 32.488 221.507 32.024C222.099 31.56 222.395 30.944 222.395 30.176C222.395 28.864 221.579 27.904 219.947 27.296L217.691 26.432C216.331 25.936 215.339 25.32 214.715 24.584C214.107 23.832 213.803 22.88 213.803 21.728C213.803 20.352 214.307 19.256 215.315 18.44C216.323 17.608 217.603 17.192 219.155 17.192C220.195 17.192 221.147 17.408 222.011 17.84C222.875 18.256 223.571 18.816 224.099 19.52L222.491 20.96C221.531 19.84 220.403 19.28 219.107 19.28C218.243 19.28 217.515 19.504 216.923 19.952C216.331 20.384 216.035 20.944 216.035 21.632C216.035 22.32 216.227 22.864 216.611 23.264C217.011 23.664 217.675 24.032 218.603 24.368L220.643 25.16C221.971 25.656 222.963 26.296 223.619 27.08C224.291 27.864 224.627 28.864 224.627 30.08C224.627 31.504 224.115 32.648 223.091 33.512C222.083 34.376 220.779 34.808 219.179 34.808Z" fill="#10239E"/>
</svg>
