<svg xmlns="http://www.w3.org/2000/svg" width="129" height="24" fill="none"><path fill="#D6E4FF" d="M20.963 8.473q-1.23-1.384-3.039-1.386a4.8 4.8 0 0 0-2.056.44 5.05 5.05 0 0 0-1.63 1.198 5.8 5.8 0 0 0-1.083 1.793 6.1 6.1 0 0 0-.397 2.229q0 1.179.367 2.149a4.9 4.9 0 0 0 1.032 1.657q.666.69 1.582 1.08a5.1 5.1 0 0 0 2.006.388q.495-.001.913-.073.416-.072.795-.233.378-.166.746-.417a6.4 6.4 0 0 0 .764-.64v2.736h-.003v.265h-3.366l-2.53 2.916v.502h9.497V7.375h-3.598zm-.009 5.015a2.7 2.7 0 0 1-.496.764 2.25 2.25 0 0 1-1.637.691 2.3 2.3 0 0 1-.925-.183 2.2 2.2 0 0 1-.736-.508 2.46 2.46 0 0 1-.666-1.71q-.001-.49.188-.916a2.4 2.4 0 0 1 .508-.742q.319-.315.734-.508a2.2 2.2 0 0 1 1.779-.01q.425.181.746.509.316.326.508.751.19.426.188.938a2.35 2.35 0 0 1-.19.924ZM10.928 8.643a3.9 3.9 0 0 0-1.301-1.007 3 3 0 0 0-.36-.138 4 4 0 0 0-.583-.136H6.119L4.423 9.34V7.403H.826v10.44h3.597V10.8h3.379l.28-.006v7.048h3.598v-6.53a6.4 6.4 0 0 0-.157-1.487 2.9 2.9 0 0 0-.595-1.18Zm24.211-1.268h-3.924l-1.56 1.799v-1.8h-3.6v10.441h3.606l.003-6.988h2.617L35.14 7.52zm19.439 4.822 4.92-4.646v-.177h-4.74l-3.774 3.766V.923h-3.597v16.89h3.597V13.56l3.955 4.251h4.84v-.199l-5.2-5.416ZM44.576 8.564a6 6 0 0 0-1.949-1.158 7 7 0 0 0-2.435-.417q-1.334 0-2.453.426a6.1 6.1 0 0 0-1.94 1.168 5.3 5.3 0 0 0-1.273 1.752 5.2 5.2 0 0 0-.456 2.168q0 1.284.456 2.33a5.4 5.4 0 0 0 1.264 1.799q.804.754 1.918 1.161t2.426.407c.888 0 1.71-.135 2.475-.407q1.143-.405 1.957-1.152a5.4 5.4 0 0 0 1.283-1.77q.467-1.026.468-2.27-.002-1.24-.456-2.27a5.3 5.3 0 0 0-1.285-1.767m-2.248 4.943q-.19.436-.496.764a2.26 2.26 0 0 1-1.637.691q-.476 0-.906-.183a2.2 2.2 0 0 1-.733-.508 2.6 2.6 0 0 1-.497-.764 2.4 2.4 0 0 1-.188-.966q0-.488.188-.915c.127-.284.29-.534.497-.751a2.26 2.26 0 0 1 1.64-.691q.476 0 .903.182.427.18.733.509.309.327.496.763.19.436.188.925.001.508-.188.944m27.278 9.57V.923h.614v22.154zm10.439-5.834V6.757h3.007q2.402 0 3.979 1.492 1.592 1.491 1.592 3.75t-1.592 3.752q-1.577 1.492-3.98 1.492zm1.37-1.285h1.637q1.871 0 3.021-1.108 1.164-1.122 1.164-2.85t-1.164-2.836q-1.149-1.122-3.021-1.122h-1.636zm16.889.162q1.724 0 2.874-1.196 1.164-1.196 1.164-2.924c0-1.728-.388-2.127-1.164-2.924q-1.15-1.197-2.874-1.197-1.71 0-2.874 1.197-1.15 1.196-1.15 2.924c0 1.728.383 2.127 1.15 2.924q1.164 1.197 2.874 1.197Zm0 1.3q-2.256 0-3.832-1.565-1.578-1.582-1.578-3.855c0-2.273.526-2.796 1.578-3.84q1.576-1.58 3.832-1.58 2.27 0 3.832 1.58 1.577 1.566 1.577 3.84c0 2.274-.526 2.801-1.577 3.855q-1.564 1.565-3.832 1.565m15.109 0q-2.255 0-3.832-1.565-1.577-1.581-1.577-3.855c0-2.274.526-2.796 1.577-3.84q1.577-1.58 3.832-1.58 1.488 0 2.697.679a5.23 5.23 0 0 1 1.931 1.86l-1.15.695a4.1 4.1 0 0 0-1.459-1.418q-.898-.516-2.019-.517-1.71 0-2.874 1.197-1.15 1.196-1.15 2.924c0 1.728.384 2.127 1.15 2.924q1.164 1.197 2.874 1.197 1.12 0 2.019-.517a4.1 4.1 0 0 0 1.459-1.418l1.15.694a5.23 5.23 0 0 1-1.931 1.86q-1.209.68-2.697.68m12.187 0q-1.252 0-2.255-.532-1.002-.531-1.4-1.358l1.091-.827q.929 1.432 2.594 1.432.855 0 1.4-.428.545-.429.545-1.137 0-1.211-1.503-1.773l-1.385-.531q-1.254-.459-1.828-1.137-.56-.695-.56-1.758 0-1.27.929-2.023.928-.768 2.358-.768.957 0 1.754.398.796.384 1.282 1.034l-.988.886q-.884-1.033-2.078-1.033-.795 0-1.341.413-.545.398-.545 1.034 0 .635.353 1.004.369.37 1.224.68l1.253.487q1.222.458 1.827 1.181.62.724.619 1.847 0 1.314-.943 2.112-.928.797-2.403.797"/></svg>