<svg xmlns="http://www.w3.org/2000/svg" width="129" height="24" fill="none" viewBox="0 0 129 24"><path fill="#273FC3" d="M20.963 8.473c-.82-.922-1.834-1.386-3.039-1.386-.743 0-1.427.146-2.056.44a5.047 5.047 0 0 0-1.63 1.198 5.781 5.781 0 0 0-1.083 1.793 6.118 6.118 0 0 0-.397 2.229c0 .786.123 1.502.367 2.149a4.858 4.858 0 0 0 1.032 1.657c.444.46.971.82 1.582 1.08.61.258 1.279.388 2.006.388.33 0 .635-.026.913-.073.277-.047.542-.126.795-.233.253-.11.5-.25.746-.417.243-.17.5-.385.764-.64v2.736h-.003v.265h-3.366l-2.53 2.916v.502h9.497V7.375h-3.598v1.098Zm-.009 5.015a2.67 2.67 0 0 1-.496.764 2.246 2.246 0 0 1-1.637.691c-.333 0-.641-.06-.925-.183a2.216 2.216 0 0 1-.736-.508 2.464 2.464 0 0 1-.666-1.71c0-.326.061-.632.188-.916a2.37 2.37 0 0 1 .508-.742c.213-.211.457-.378.734-.508a2.211 2.211 0 0 1 1.779-.01c.283.12.533.291.746.509.212.218.379.467.508.751.127.284.188.597.188.938a2.35 2.35 0 0 1-.19.924ZM10.928 8.643a3.896 3.896 0 0 0-1.301-1.007 3.077 3.077 0 0 0-.36-.138 4.051 4.051 0 0 0-.583-.136H6.119L4.423 9.34V7.403H.826v10.44h3.597V10.8h3.379l.28-.006v7.048h3.598v-6.53c0-.556-.053-1.052-.157-1.487a2.92 2.92 0 0 0-.595-1.18ZM35.139 7.375H31.215l-1.56 1.799v-1.8h-3.6v10.441h3.606l.003-6.988h2.617L35.14 7.52v-.145ZM54.578 12.197l4.92-4.646v-.177h-4.74l-3.774 3.766V.923h-3.597v16.89h3.597V13.56l3.955 4.251h4.84v-.199l-5.2-5.416ZM44.576 8.564a5.966 5.966 0 0 0-1.949-1.158 6.948 6.948 0 0 0-2.435-.417c-.888 0-1.708.142-2.453.426a6.077 6.077 0 0 0-1.94 1.168 5.338 5.338 0 0 0-1.273 1.752 5.184 5.184 0 0 0-.456 2.168c0 .856.151 1.632.456 2.33a5.355 5.355 0 0 0 1.264 1.799c.537.502 1.175.89 1.918 1.161.743.272 1.55.407 2.426.407.888 0 1.71-.135 2.475-.407.761-.271 1.415-.653 1.957-1.152a5.396 5.396 0 0 0 1.283-1.77c.311-.685.468-1.44.468-2.27 0-.827-.154-1.584-.456-2.27a5.296 5.296 0 0 0-1.285-1.767Zm-2.248 4.943c-.126.29-.292.546-.496.764a2.256 2.256 0 0 1-1.637.691c-.317 0-.62-.06-.906-.183a2.173 2.173 0 0 1-.733-.508 2.61 2.61 0 0 1-.497-.764 2.394 2.394 0 0 1-.188-.966c0-.325.062-.631.188-.915.127-.284.29-.534.497-.751a2.26 2.26 0 0 1 1.64-.691c.317 0 .619.06.903.182.283.12.53.29.733.509.207.217.37.473.496.763.127.29.188.6.188.925 0 .338-.061.654-.188.944ZM69.606 23.077V.923h.614v22.154h-.614ZM80.045 17.243V6.757h3.007c1.601 0 2.928.497 3.979 1.492 1.061.994 1.592 2.244 1.592 3.75 0 1.507-.53 2.758-1.592 3.752-1.051.995-2.378 1.492-3.98 1.492h-3.006Zm1.37-1.285h1.637c1.247 0 2.255-.37 3.021-1.108.776-.748 1.164-1.698 1.164-2.85 0-1.152-.388-2.097-1.164-2.836-.766-.748-1.773-1.122-3.021-1.122h-1.636v7.916ZM98.304 16.12c1.15 0 2.107-.398 2.874-1.196.776-.797 1.164-1.772 1.164-2.924s-.388-2.127-1.164-2.924c-.767-.798-1.725-1.197-2.874-1.197-1.14 0-2.098.4-2.874 1.197-.767.797-1.15 1.772-1.15 2.924s.383 2.127 1.15 2.924c.776.798 1.734 1.197 2.874 1.197Zm0 1.3c-1.504 0-2.781-.522-3.832-1.565C93.42 14.8 92.894 13.516 92.894 12s.526-2.796 1.578-3.84c1.05-1.054 2.328-1.58 3.832-1.58 1.513 0 2.79.526 3.832 1.58 1.051 1.044 1.577 2.324 1.577 3.84s-.526 2.801-1.577 3.855c-1.042 1.043-2.32 1.565-3.832 1.565ZM113.413 17.42c-1.503 0-2.781-.522-3.832-1.565-1.051-1.054-1.577-2.339-1.577-3.855s.526-2.796 1.577-3.84c1.051-1.054 2.329-1.58 3.832-1.58.992 0 1.891.226 2.697.679a5.233 5.233 0 0 1 1.931 1.86l-1.15.695a4.1 4.1 0 0 0-1.459-1.418c-.599-.344-1.272-.517-2.019-.517-1.14 0-2.098.4-2.874 1.197-.766.797-1.15 1.772-1.15 2.924s.384 2.127 1.15 2.924c.776.798 1.734 1.197 2.874 1.197.747 0 1.42-.173 2.019-.517a4.1 4.1 0 0 0 1.459-1.418l1.15.694a5.233 5.233 0 0 1-1.931 1.86c-.806.454-1.705.68-2.697.68ZM125.6 17.42c-.835 0-1.586-.177-2.255-.532-.668-.354-1.134-.807-1.4-1.358l1.091-.827c.619.955 1.484 1.432 2.594 1.432.57 0 1.037-.143 1.4-.428.364-.286.545-.665.545-1.137 0-.808-.501-1.398-1.503-1.773l-1.385-.531c-.836-.306-1.445-.685-1.828-1.137-.373-.463-.56-1.05-.56-1.758 0-.847.31-1.521.929-2.023.619-.512 1.405-.768 2.358-.768.638 0 1.223.133 1.754.398.53.256.958.601 1.282 1.034l-.988.886c-.589-.689-1.282-1.033-2.078-1.033-.53 0-.977.137-1.341.413-.363.266-.545.61-.545 1.034 0 .423.118.758.353 1.004.246.246.654.473 1.224.68l1.253.487c.815.305 1.424.7 1.827 1.181.413.483.619 1.098.619 1.847 0 .876-.314 1.58-.943 2.112-.619.531-1.42.797-2.403.797Z"/></svg>